<?xml version="1.0" encoding="UTF-8" standalone="no"?>
<!-- Created with Inkscape (http://www.inkscape.org/) -->

<svg
   xmlns:dc="http://purl.org/dc/elements/1.1/"
   xmlns:cc="http://creativecommons.org/ns#"
   xmlns:rdf="http://www.w3.org/1999/02/22-rdf-syntax-ns#"
   xmlns:svg="http://www.w3.org/2000/svg"
   xmlns="http://www.w3.org/2000/svg"
   xmlns:sodipodi="http://sodipodi.sourceforge.net/DTD/sodipodi-0.dtd"
   xmlns:inkscape="http://www.inkscape.org/namespaces/inkscape"
   id="svg4347"
   version="1.1"
   inkscape:version="0.91 r13725"
   width="1027.5"
   height="1027.5"
   viewBox="0 0 1027.5 1027.5"
   sodipodi:docname="Juno mission insignia.svg">
  <metadata
     id="metadata4353">
    <rdf:RDF>
      <cc:Work
         rdf:about="">
        <dc:format>image/svg+xml</dc:format>
        <dc:type
           rdf:resource="http://purl.org/dc/dcmitype/StillImage" />
      </cc:Work>
    </rdf:RDF>
  </metadata>
  <defs
     id="defs4351" />
  <sodipodi:namedview
     pagecolor="#ffffff"
     bordercolor="#666666"
     borderopacity="1"
     objecttolerance="10"
     gridtolerance="10"
     guidetolerance="10"
     inkscape:pageopacity="0"
     inkscape:pageshadow="2"
     inkscape:window-width="1366"
     inkscape:window-height="705"
     id="namedview4349"
     showgrid="false"
     inkscape:zoom="1"
     inkscape:cx="454.36299"
     inkscape:cy="963.93387"
     inkscape:window-x="-4"
     inkscape:window-y="-4"
     inkscape:window-maximized="1"
     inkscape:current-layer="svg4347" />
  <path
     style="fill:#1d2e5c;fill-opacity:1"
     d="m 488.4375,1010.0113 c -38.63051,-2.6196 -64.87454,-6.4868 -95.15625,-14.02199 C 263.84268,963.78047 152.8083,881.00411 84.694958,765.9375 53.473785,713.19431 32.779001,656.76685 22.519147,596.40575 20.189182,582.69802 16.875,554.46174 16.875,548.31856 l 0,-4.34019 16.171875,-3.94832 C 99.485053,523.80937 157.84789,511.04277 221.25,498.86152 c 55.2083,-10.60701 70.76297,-13.27638 71.12249,-12.20551 0.18768,0.55903 2.32951,3.61435 4.75963,6.78958 20.67672,27.01663 59.15749,31.35838 85.48174,9.64483 9.49137,-7.82896 17.98824,-21.65493 20.0446,-32.61626 l 0.61491,-3.27772 7.66019,-1.07095 c 4.21311,-0.58902 20.72036,-2.98077 36.6828,-5.31498 52.6469,-7.69864 126.34248,-17.1062 178.63364,-22.80334 l 23.90625,-2.60459 0.2534,-19.42004 c 0.13937,-10.68102 0.0443,-19.42004 -0.21122,-19.42004 -2.22611,0 -75.25417,8.5131 -104.57343,12.19043 -53.44544,6.70334 -137.62665,18.34058 -145.96251,20.1779 -1.66272,0.36649 -2.70247,-0.52034 -5.43285,-4.63383 -7.89341,-11.89193 -21.93907,-21.9045 -35.59848,-25.37666 -7.08082,-1.79992 -20.7918,-1.80419 -28.40641,-0.008 -6.78279,1.59921 -15.5882,5.80985 -22.1363,10.58533 -9.57404,6.98226 -18.92046,21.21251 -21.55311,32.81535 l -1.21256,5.3441 -24.30201,4.46362 c -78.28293,14.37799 -157.30192,31.02939 -221.538147,46.68353 -12.573621,3.06414 -23.08143,5.57117 -23.350688,5.57117 -0.968995,0 0.758925,-31.75029 2.598157,-47.74081 C 30.156604,357.29072 69.244928,266.90938 133.90949,190.3125 146.95276,174.8624 175.47198,146.41 191.07076,133.28516 274.73166,62.892728 373.03575,23.198324 481.875,15.860747 c 20.07849,-1.353624 62.43156,-0.607178 81.5625,1.43749 104.22435,11.139235 196.08468,50.744126 276.09375,119.035743 11.49467,9.81125 35.35323,33.46976 46.39882,46.00977 21.18854,24.05522 43.64336,55.10824 58.6399,81.09375 9.04434,15.67171 25.66715,49.9214 31.8164,65.55451 4.89572,12.44616 14.55113,40.42861 14.55113,42.17065 0,0.40972 -9.80859,1.03145 -21.79688,1.38162 -35.39928,1.03396 -73.6827,3.22469 -143.75632,8.22625 L 810,381.86859 l 0,15.18486 c 0,8.35167 0.26534,17.12075 0.58965,19.48684 0.55044,4.01588 0.75307,4.27367 3.04687,3.87632 2.89926,-0.50223 59.94816,-4.46524 93.39473,-6.48783 27.57253,-1.66738 68.78981,-3.29546 83.55272,-3.30034 l 10.42783,-0.004 1.56,8.52713 c 6.1836,33.79901 8.3644,58.02685 8.388,93.19162 0.025,37.02306 -2.5584,64.2347 -9.3003,97.96875 -5.25441,26.29038 -13.79072,57.1875 -15.80006,57.1875 -0.56681,0 -8.1991,-4.14458 -16.9606,-9.21019 -8.76159,-5.0656 -30.69571,-17.47178 -48.74259,-27.56928 -18.04687,-10.09752 -48.41435,-27.15215 -67.48327,-37.89919 l -34.67079,-19.53978 -3.63387,-6.01951 c -1.99862,-3.31072 -9.01268,-15.12322 -15.58678,-26.25 L 786.82863,520.781 785.74372,425.156 c -0.5967,-52.59375 -1.07845,-103.95703 -1.07056,-114.14063 l 0.0143,-18.51562 -5.94714,0 -5.94714,0 -10.90137,-18.04688 -10.90137,-18.04687 -0.64391,-31.18879 -0.64393,-31.18878 -21.64819,0.25128 -21.6482,0.25129 0.30984,30.9375 0.30985,30.9375 -10.66101,18.28125 -10.661,18.28125 -5.93057,0.28196 -5.93058,0.28197 0.66612,41.43678 c 0.36637,22.79023 0.98135,74.1321 1.36663,114.09304 l 0.70051,72.65625 -15.05282,26.8495 -15.05283,26.84952 -7.06332,4.15692 c -3.88483,2.28631 -30.05551,17.79057 -58.15707,34.45392 -84.80762,50.28826 -103.65004,61.44083 -148.125,87.67317 -23.46094,13.8378 -43.15833,25.61972 -43.77199,26.18205 -0.8434,0.77287 5.65035,12.46373 26.60488,47.89742 15.24633,25.78125 27.85054,47.024 28.00934,47.20612 0.15882,0.18211 8.43662,-4.49012 18.39513,-10.38273 17.50584,-10.35848 85.39076,-50.58351 142.32514,-84.33437 15.21094,-9.01709 43.26562,-25.64093 62.34375,-36.94186 l 34.6875,-20.54716 16.40625,-0.59649 c 9.02344,-0.32808 22.96574,-0.64449 30.98289,-0.70313 l 14.57665,-0.10663 14.0171,7.81216 c 23.46875,13.07985 158.24641,88.91189 160.51733,90.31436 2.63325,1.62623 2.95781,0.95129 -9.61538,19.99848 -80.58369,122.07698 -212.47846,203.12072 -357.66609,219.77055 -24.86651,2.8517 -62.45171,4.1004 -82.5,2.7408 z m 234.375,-365.65897 c -13.41667,-2.2459 -27.77744,-11.02784 -36.18466,-22.12775 -12.05795,-15.9199 -15.32553,-34.79752 -9.31603,-53.82096 3.01596,-9.5472 7.86526,-16.96091 16.24347,-24.83336 22.99194,-21.60399 58.38965,-20.74701 80.83671,1.95705 17.87872,18.08342 21.92403,43.88008 10.5981,67.58347 -6.73911,14.10391 -22.77679,26.66157 -38.90641,30.46412 -5.47995,1.29189 -17.74924,1.70177 -23.27118,0.77743 z"
     id="path4361"
     inkscape:connector-curvature="0" />
</svg>
